<?xml version="1.0" encoding="UTF-8"?>
<svg version="1.1" xmlns="http://www.w3.org/2000/svg" width="500" height="500">
<path d="M0 0 C1.11270264 0.00418945 2.22540527 0.00837891 3.37182617 0.01269531 C11.93735004 0.12974979 19.72336317 0.98976736 28 3.3125 C28.969375 3.55613281 29.93875 3.79976562 30.9375 4.05078125 C41.35533161 7.03741504 53.8450271 13.00338865 62 20.3125 C62 20.9725 62 21.6325 62 22.3125 C62.66 22.3125 63.32 22.3125 64 22.3125 C64 22.9725 64 23.6325 64 24.3125 C64.598125 24.60125 65.19625 24.89 65.8125 25.1875 C68 26.3125 68 26.3125 71 28.3125 C71 28.9725 71 29.6325 71 30.3125 C71.66 30.3125 72.32 30.3125 73 30.3125 C73.99 32.7875 73.99 32.7875 75 35.3125 C75.66 35.3125 76.32 35.3125 77 35.3125 C77 35.9725 77 36.6325 77 37.3125 C77.66 37.3125 78.32 37.3125 79 37.3125 C95.52101967 60.58051446 102.45844301 87.46410974 98.2265625 115.78515625 C94.41324278 137.09737646 82.08835093 155.16868531 70.07226562 172.68701172 C68.93993039 174.33330363 68.93993039 174.33330363 68 176.3125 C67.34 176.3125 66.68 176.3125 66 176.3125 C65.88068115 176.89225586 65.7613623 177.47201172 65.63842773 178.06933594 C64.53146466 181.95873431 62.20367186 185.16305183 60.0625 188.5625 C59.60681641 189.30757812 59.15113281 190.05265625 58.68164062 190.8203125 C58.24142578 191.52414062 57.80121094 192.22796875 57.34765625 192.953125 C56.94554932 193.59797852 56.54344238 194.24283203 56.12915039 194.90722656 C55.57022095 195.60283691 55.57022095 195.60283691 55 196.3125 C54.34 196.3125 53.68 196.3125 53 196.3125 C52.01 199.2825 52.01 199.2825 51 202.3125 C50.34 202.3125 49.68 202.3125 49 202.3125 C48.7834375 203.12976563 48.566875 203.94703125 48.34375 204.7890625 C46.64638515 209.23971104 44.21925328 212.80184868 41.5 216.6875 C41.00113281 217.42355469 40.50226563 218.15960938 39.98828125 218.91796875 C37.2078442 222.9358121 37.2078442 222.9358121 36 224.3125 C35.34 224.3125 34.68 224.3125 34 224.3125 C33.6596875 225.3953125 33.6596875 225.3953125 33.3125 226.5 C31.73664872 229.87682417 29.79123384 231.87017039 27 234.3125 C26.34 234.3125 25.68 234.3125 25 234.3125 C24.7525 234.910625 24.505 235.50875 24.25 236.125 C22.81927475 238.62876919 21.4308418 239.79322388 19 241.3125 C18.34 241.3125 17.68 241.3125 17 241.3125 C17 241.9725 17 242.6325 17 243.3125 C-5.85080595 260.67633431 -32.57567526 265.38967755 -60.72314453 261.98291016 C-65.31675532 261.19704759 -69.62006545 259.92284719 -74 258.3125 C-75.06605469 257.92707031 -76.13210937 257.54164063 -77.23046875 257.14453125 C-83.28287956 254.77419546 -88.96763556 251.83521745 -94.625 248.64453125 C-96.72342412 247.46761904 -98.8386478 246.36816045 -101 245.3125 C-101 244.6525 -101 243.9925 -101 243.3125 C-101.84304687 242.94318359 -101.84304687 242.94318359 -102.703125 242.56640625 C-121.13557569 232.50379286 -131.72189455 211.37360994 -138 192.26953125 C-142.58975487 176.62464567 -142.64260123 158.14989667 -139 142.3125 C-138.78214844 141.28640625 -138.56429687 140.2603125 -138.33984375 139.203125 C-136.93591366 133.03503872 -135.03000833 127.8345804 -132 122.3125 C-131.66484375 121.59191406 -131.3296875 120.87132812 -130.984375 120.12890625 C-127.70541116 113.09760702 -123.47025752 106.82753124 -119.109375 100.4375 C-117.07251761 97.56564801 -117.07251761 97.56564801 -116 95.3125 C-115.34 95.3125 -114.68 95.3125 -114 95.3125 C-113.855625 94.69375 -113.71125 94.075 -113.5625 93.4375 C-113 91.3125 -113 91.3125 -112 89.3125 C-111.34 89.3125 -110.68 89.3125 -110 89.3125 C-109.9175 88.796875 -109.835 88.28125 -109.75 87.75 C-108.67859775 84.26794268 -106.86476395 81.44049115 -105 78.3125 C-104.34 78.3125 -103.68 78.3125 -103 78.3125 C-102.71125 77.57 -102.4225 76.8275 -102.125 76.0625 C-101.17697356 73.74510203 -100.15154089 71.53332885 -99 69.3125 C-98.34 69.3125 -97.68 69.3125 -97 69.3125 C-96.74863281 68.4359375 -96.49726563 67.559375 -96.23828125 66.65625 C-94.20449749 61.16439226 -90.53449154 56.92716497 -87 52.3125 C-86.52949219 51.63832031 -86.05898437 50.96414063 -85.57421875 50.26953125 C-83.51012113 47.4389609 -82.4388286 46.39310117 -78.9375 45.75 C-74.07289294 46.6815205 -74.07289294 46.6815205 -72 49.3125 C-71.66711225 52.34070472 -71.77106677 55.27913466 -72 58.3125 C-72.66 58.3125 -73.32 58.3125 -74 58.3125 C-74.12568359 59.09367187 -74.12568359 59.09367187 -74.25390625 59.890625 C-75.29173323 63.25948743 -77.09145714 66.08922743 -78.9375 69.0625 C-79.29779297 69.66449219 -79.65808594 70.26648438 -80.02929688 70.88671875 C-80.96079133 72.39975394 -81.97461836 73.86144869 -83 75.3125 C-83.66 75.3125 -84.32 75.3125 -85 75.3125 C-85.66 77.2925 -86.32 79.2725 -87 81.3125 C-87.66 81.3125 -88.32 81.3125 -89 81.3125 C-89 82.3025 -89 83.2925 -89 84.3125 C-89.66 84.3125 -90.32 84.3125 -91 84.3125 C-91.144375 84.93125 -91.28875 85.55 -91.4375 86.1875 C-92 88.3125 -92 88.3125 -93 90.3125 C-93.66 90.3125 -94.32 90.3125 -95 90.3125 C-95.13921875 91.14587891 -95.13921875 91.14587891 -95.28125 91.99609375 C-96.1894959 94.92321234 -97.68608907 96.91060871 -99.5 99.375 C-101.5022537 102.10348097 -102.9261177 104.0908531 -104 107.3125 C-104.66 107.3125 -105.32 107.3125 -106 107.3125 C-106.25007813 108.00730469 -106.50015625 108.70210938 -106.7578125 109.41796875 C-108.17560247 112.72168689 -109.9486812 115.59013925 -111.875 118.625 C-120.84597356 133.00153436 -125.40105613 147.37073759 -125.375 164.4375 C-125.37483887 165.43507324 -125.37467773 166.43264648 -125.37451172 167.46044922 C-125.22750197 177.09345634 -123.639 186.0699 -119.8671875 194.9921875 C-119 197.3125 -119 197.3125 -119 201.3125 C-118.34 201.3125 -117.68 201.3125 -117 201.3125 C-116.68546875 201.97636719 -116.3709375 202.64023437 -116.046875 203.32421875 C-113.72974387 208.10504654 -111.44383306 212.23092008 -108 216.3125 C-108 216.9725 -108 217.6325 -108 218.3125 C-107.34 218.3125 -106.68 218.3125 -106 218.3125 C-106 218.9725 -106 219.6325 -106 220.3125 C-105.34 220.3125 -104.68 220.3125 -104 220.3125 C-104 220.9725 -104 221.6325 -104 222.3125 C-103.34 222.3125 -102.68 222.3125 -102 222.3125 C-102 222.9725 -102 223.6325 -102 224.3125 C-101.34 224.3125 -100.68 224.3125 -100 224.3125 C-98.375 225.6875 -98.375 225.6875 -97 227.3125 C-97 227.9725 -97 228.6325 -97 229.3125 C-96.236875 229.60125 -95.47375 229.89 -94.6875 230.1875 C-92 231.3125 -92 231.3125 -89 233.3125 C-89 233.9725 -89 234.6325 -89 235.3125 C-88.4328125 235.42980469 -87.865625 235.54710937 -87.28125 235.66796875 C-84.78802223 236.37239098 -82.78007539 237.39755941 -80.5 238.625 C-61.27744071 248.39152792 -38.70172302 250.58529763 -18.07617188 244.05322266 C-8.62719512 240.6820802 0.09301479 235.69660759 8.08203125 229.66015625 C10 228.3125 10 228.3125 13 227.3125 C13.33 226.3225 13.66 225.3325 14 224.3125 C15.9375 222.125 15.9375 222.125 18 220.3125 C18.66 220.3125 19.32 220.3125 20 220.3125 C20 219.6525 20 218.9925 20 218.3125 C20.66 218.3125 21.32 218.3125 22 218.3125 C22.2475 217.61125 22.495 216.91 22.75 216.1875 C24.17180238 212.91735452 25.87246288 210.171378 28 207.3125 C28.66 207.3125 29.32 207.3125 30 207.3125 C30.0825 206.796875 30.165 206.28125 30.25 205.75 C31.32140225 202.26794268 33.13523605 199.44049115 35 196.3125 C35.66 196.3125 36.32 196.3125 37 196.3125 C37.99 193.3425 37.99 193.3425 39 190.3125 C39.66 190.3125 40.32 190.3125 41 190.3125 C41.34804688 189.03632813 41.34804688 189.03632813 41.703125 187.734375 C43.17317214 183.85557592 45.27485188 180.83923782 47.75 177.5625 C51.45941616 172.54033592 54.81676092 167.48103113 57.84375 162.0078125 C58.2253125 161.44835937 58.606875 160.88890625 59 160.3125 C59.66 160.3125 60.32 160.3125 61 160.3125 C61.11931885 159.72984375 61.2386377 159.1471875 61.36157227 158.546875 C62.0270767 156.21773671 62.90900441 154.59433039 64.21484375 152.5625 C64.65376953 151.8715625 65.09269531 151.180625 65.54492188 150.46875 C66.00447266 149.7571875 66.46402344 149.045625 66.9375 148.3125 C67.84406779 146.89686939 68.74906778 145.4802333 69.65234375 144.0625 C70.25550415 143.12664062 70.25550415 143.12664062 70.87084961 142.171875 C72.02887624 140.26494942 73.02961067 138.32047014 74 136.3125 C74.66 136.3125 75.32 136.3125 76 136.3125 C76.12503906 135.59578125 76.25007812 134.8790625 76.37890625 134.140625 C77.19925402 130.40520495 78.58067628 126.97965906 79.96484375 123.421875 C86.65557973 103.32441899 84.3902555 80.66256579 75.3046875 61.7578125 C73.66539879 58.68537318 71.86720111 55.75595764 69.91796875 52.87109375 C69 51.3125 69 51.3125 69 49.3125 C68.34 49.3125 67.68 49.3125 67 49.3125 C65.87890625 47.9140625 65.87890625 47.9140625 64.5625 45.9375 C58.94839873 38.2043507 51.60651982 31.52013191 43 27.3125 C43 26.6525 43 25.9925 43 25.3125 C42.48824219 25.20808594 41.97648438 25.10367188 41.44921875 24.99609375 C37.47594531 23.88712588 33.71837186 22.18672366 29.92773438 20.57226562 C19.03888133 16.08075306 8.74556507 16.13362435 -2.87255859 16.42895508 C-4.93065458 16.47734441 -6.98841605 16.50710864 -9.046875 16.53515625 C-10.86977051 16.57781616 -10.86977051 16.57781616 -12.72949219 16.62133789 C-16.33159244 16.28118734 -18.16649548 15.53060479 -21 13.3125 C-22.21333973 9.82414826 -22.26285217 8.03534346 -21 4.5625 C-15.94209211 -1.12764637 -7.00455797 -0.03570807 0 0 Z " fill="#28438C" transform="translate(248,206.6875)"/>
<path d="M0 0 C1.14678223 0.00418945 2.29356445 0.00837891 3.47509766 0.01269531 C11.4708876 0.11965479 18.50475617 0.77241872 26.125 3.3125 C27.11886719 3.60253906 28.11273438 3.89257812 29.13671875 4.19140625 C39.3896052 7.32897329 48.54183726 12.04027389 57.375 18.0625 C57.94855225 18.45139404 58.52210449 18.84028809 59.11303711 19.2409668 C60.49064551 20.2099249 61.81396092 21.25521042 63.125 22.3125 C63.125 22.9725 63.125 23.6325 63.125 24.3125 C63.785 24.3125 64.445 24.3125 65.125 24.3125 C65.125 24.9725 65.125 25.6325 65.125 26.3125 C65.785 26.3125 66.445 26.3125 67.125 26.3125 C67.125 26.9725 67.125 27.6325 67.125 28.3125 C67.723125 28.580625 68.32125 28.84875 68.9375 29.125 C71.12347854 30.31167406 72.53832594 31.40849113 74.125 33.3125 C74.125 33.9725 74.125 34.6325 74.125 35.3125 C74.785 35.3125 75.445 35.3125 76.125 35.3125 C77.64511528 37.19744295 79.01937832 39.06318971 80.375 41.0625 C80.77614014 41.65087646 81.17728027 42.23925293 81.59057617 42.84545898 C96.41271656 65.02370673 101.53895059 91.64128664 96.74658203 117.81689453 C92.34188009 138.35782271 80.8333058 155.52875957 69.22900391 172.62353516 C68.07148978 174.32365462 68.07148978 174.32365462 67.125 176.3125 C66.465 176.3125 65.805 176.3125 65.125 176.3125 C65.00568115 176.89225586 64.8863623 177.47201172 64.76342773 178.06933594 C63.65646466 181.95873431 61.32867186 185.16305183 59.1875 188.5625 C58.73181641 189.30757812 58.27613281 190.05265625 57.80664062 190.8203125 C57.36642578 191.52414063 56.92621094 192.22796875 56.47265625 192.953125 C56.07054932 193.59797852 55.66844238 194.24283203 55.25415039 194.90722656 C54.69522095 195.60283691 54.69522095 195.60283691 54.125 196.3125 C53.465 196.3125 52.805 196.3125 52.125 196.3125 C51.135 199.2825 51.135 199.2825 50.125 202.3125 C49.465 202.3125 48.805 202.3125 48.125 202.3125 C47.135 205.2825 47.135 205.2825 46.125 208.3125 C45.465 208.3125 44.805 208.3125 44.125 208.3125 C44.0425 208.89 43.96 209.4675 43.875 210.0625 C42.85651664 213.11795009 41.72153964 214.39926027 39.125 216.3125 C34.72296571 216.77587203 32.8455836 216.79288907 29.125 214.3125 C28.1785357 211.09452137 27.58700842 208.63003041 28.890625 205.4375 C29.90097862 203.68823105 31.0118071 201.9981921 32.125 200.3125 C32.8052367 198.98603844 33.47992261 197.65641123 34.125 196.3125 C34.785 196.3125 35.445 196.3125 36.125 196.3125 C37.115 193.3425 37.115 193.3425 38.125 190.3125 C38.785 190.3125 39.445 190.3125 40.125 190.3125 C40.38667969 189.59835938 40.64835938 188.88421875 40.91796875 188.1484375 C42.18059083 185.18188853 43.6887518 182.64398835 45.4375 179.9375 C46.05496094 178.98101562 46.67242187 178.02453125 47.30859375 177.0390625 C48.82801143 174.7583022 50.38483854 172.52569501 52 170.3125 C54.23588069 167.46370094 54.23588069 167.46370094 55.125 164.3125 C55.785 164.3125 56.445 164.3125 57.125 164.3125 C57.34671875 163.65507812 57.5684375 162.99765625 57.796875 162.3203125 C59.56893361 158.30712095 61.9460198 154.82995974 64.375 151.1875 C78.6921311 129.31688818 86.54372525 106.08403227 81.04516602 79.70288086 C78.71999792 70.29518254 74.49360805 61.7529171 69.41015625 53.54296875 C68.125 51.3125 68.125 51.3125 68.125 49.3125 C67.465 49.3125 66.805 49.3125 66.125 49.3125 C62.125 44.84191176 62.125 44.84191176 62.125 42.3125 C61.465 42.3125 60.805 42.3125 60.125 42.3125 C59.568125 41.590625 59.01125 40.86875 58.4375 40.125 C56.42913144 37.68238959 54.93077556 36.35982947 52.375 34.625 C51.3025 33.861875 50.23 33.09875 49.125 32.3125 C49.125 31.6525 49.125 30.9925 49.125 30.3125 C48.42375 30.044375 47.7225 29.77625 47 29.5 C43.9600176 28.2443551 41.0522226 26.81014877 38.125 25.3125 C38.125 24.6525 38.125 23.9925 38.125 23.3125 C37.40957031 23.18617187 36.69414062 23.05984375 35.95703125 22.9296875 C33.11807096 22.31098995 30.54028272 21.43292849 27.8125 20.4375 C13.68547088 15.66461963 -0.02130583 13.9239929 -14.6875 17 C-15.55842285 17.18151611 -16.4293457 17.36303223 -17.32666016 17.55004883 C-29.2720401 20.15335901 -38.93507892 24.58602051 -48.9765625 31.421875 C-51.875 33.3125 -51.875 33.3125 -54.875 34.3125 C-54.875 34.9725 -54.875 35.6325 -54.875 36.3125 C-56.58984375 37.96875 -56.58984375 37.96875 -58.8125 39.8125 C-61.79545179 42.20176999 -61.79545179 42.20176999 -63.875 45.3125 C-64.535 45.3125 -65.195 45.3125 -65.875 45.3125 C-66.2771875 46.3953125 -66.2771875 46.3953125 -66.6875 47.5 C-67.87401362 50.31016383 -69.14985639 52.79666557 -70.875 55.3125 C-71.535 55.3125 -72.195 55.3125 -72.875 55.3125 C-72.978125 55.869375 -73.08125 56.42625 -73.1875 57 C-74.01678408 59.7894101 -75.21799056 61.9264064 -76.875 64.3125 C-77.535 64.3125 -78.195 64.3125 -78.875 64.3125 C-78.9678125 64.85648437 -79.060625 65.40046875 -79.15625 65.9609375 C-80.08533056 69.00064673 -81.63047448 71.28496324 -83.375 73.9375 C-85.77068822 77.54141073 -85.77068822 77.54141073 -87.875 81.3125 C-88.535 81.3125 -89.195 81.3125 -89.875 81.3125 C-90.16375 82.055 -90.4525 82.7975 -90.75 83.5625 C-91.69802644 85.87989797 -92.72345911 88.09167115 -93.875 90.3125 C-94.535 90.3125 -95.195 90.3125 -95.875 90.3125 C-96.08125 91.1375 -96.2875 91.9625 -96.5 92.8125 C-98.00645679 96.64711728 -99.96891551 99.29933414 -102.53515625 102.48046875 C-104.06650174 104.37904568 -104.06650174 104.37904568 -104.875 107.3125 C-105.535 107.3125 -106.195 107.3125 -106.875 107.3125 C-107.14183594 108.04210937 -107.40867188 108.77171875 -107.68359375 109.5234375 C-108.85942646 112.27604259 -110.22594877 114.4900238 -111.9375 116.9375 C-113.71487829 119.48406156 -114.88565939 121.34447816 -115.875 124.3125 C-116.535 124.3125 -117.195 124.3125 -117.875 124.3125 C-118.00132812 124.87839844 -118.12765625 125.44429688 -118.2578125 126.02734375 C-119.11863877 129.21458025 -120.44403561 132.16068156 -121.7421875 135.19140625 C-125.2587664 144.88018742 -126.42405517 153.61890823 -126.375 163.9375 C-126.37456696 164.59492188 -126.37413391 165.25234375 -126.37368774 165.9296875 C-126.32972707 178.13331813 -124.82629802 188.61348372 -119.20703125 199.5625 C-117.875 202.3125 -117.875 202.3125 -117.875 205.3125 C-117.215 205.3125 -116.555 205.3125 -115.875 205.3125 C-115.276875 206.385 -114.67875 207.4575 -114.0625 208.5625 C-112.83941973 210.71703641 -111.62478258 212.64314445 -110.125 214.625 C-108.875 216.3125 -108.875 216.3125 -108.875 218.3125 C-108.215 218.3125 -107.555 218.3125 -106.875 218.3125 C-106.875 218.9725 -106.875 219.6325 -106.875 220.3125 C-106.215 220.3125 -105.555 220.3125 -104.875 220.3125 C-104.359375 220.993125 -103.84375 221.67375 -103.3125 222.375 C-99.67527593 226.75832132 -95.00295903 230.74852049 -89.875 233.3125 C-89.875 233.9725 -89.875 234.6325 -89.875 235.3125 C-89.28589844 235.44140625 -88.69679687 235.5703125 -88.08984375 235.703125 C-85.30097757 236.4704321 -82.90353608 237.82515077 -80.3359375 239.1328125 C-64.40806799 246.76807693 -47.45187132 249.50717623 -29.91015625 246.7578125 C-26.875 246.3125 -26.875 246.3125 -24.5625 247 C-22.42780427 248.6603189 -21.66890837 249.71425442 -20.875 252.3125 C-21.17252496 255.28774961 -21.53620597 257.63491195 -22.875 260.3125 C-26.86523665 262.38103722 -30.34933737 262.59342663 -34.80078125 262.6484375 C-35.46095749 262.65686172 -36.12113373 262.66528595 -36.80131531 262.67396545 C-38.93029621 262.69357048 -41.05844456 262.69368911 -43.1875 262.6875 C-43.91219482 262.68662384 -44.63688965 262.68574768 -45.38354492 262.68484497 C-64.11329883 262.60977426 -79.27381391 257.78078179 -95.875 249.3125 C-95.875 248.6525 -95.875 247.9925 -95.875 247.3125 C-98.845 246.3225 -98.845 246.3225 -101.875 245.3125 C-101.875 244.6525 -101.875 243.9925 -101.875 243.3125 C-102.535 243.126875 -103.195 242.94125 -103.875 242.75 C-108.14405268 240.70441226 -111.61663706 237.74065357 -114.875 234.3125 C-114.875 233.6525 -114.875 232.9925 -114.875 232.3125 C-115.535 232.3125 -116.195 232.3125 -116.875 232.3125 C-119.875 228.85096154 -119.875 228.85096154 -119.875 226.3125 C-120.535 226.3125 -121.195 226.3125 -121.875 226.3125 C-123.26216769 224.31581923 -124.51944896 222.3404884 -125.75 220.25 C-126.11005127 219.64728271 -126.47010254 219.04456543 -126.84106445 218.42358398 C-127.85559896 216.72180642 -128.86545431 215.01724182 -129.875 213.3125 C-130.28363281 212.67570313 -130.69226563 212.03890625 -131.11328125 211.3828125 C-143.40382175 191.8595671 -145.25282461 164.25847531 -140.40966797 142.19238281 C-136.89977647 127.94337191 -129.93583709 112.87118948 -120.875 101.3125 C-120.215 101.3125 -119.555 101.3125 -118.875 101.3125 C-118.730625 100.69375 -118.58625 100.075 -118.4375 99.4375 C-117.875 97.3125 -117.875 97.3125 -116.875 95.3125 C-116.215 95.3125 -115.555 95.3125 -114.875 95.3125 C-114.73578125 94.47912109 -114.73578125 94.47912109 -114.59375 93.62890625 C-113.6855041 90.70178766 -112.18891093 88.71439129 -110.375 86.25 C-108.3727463 83.52151903 -106.9488823 81.5341469 -105.875 78.3125 C-105.215 78.3125 -104.555 78.3125 -103.875 78.3125 C-103.875 77.3225 -103.875 76.3325 -103.875 75.3125 C-103.215 75.3125 -102.555 75.3125 -101.875 75.3125 C-101.215 73.3325 -100.555 71.3525 -99.875 69.3125 C-99.215 69.3125 -98.555 69.3125 -97.875 69.3125 C-97.64683594 68.466875 -97.41867188 67.62125 -97.18359375 66.75 C-95.64574474 62.71027723 -93.52681834 59.73503333 -90.9375 56.3125 C-87.79272422 52.11946562 -85.08710937 48.10175329 -82.875 43.3125 C-82.215 43.3125 -81.555 43.3125 -80.875 43.3125 C-80.545 41.9925 -80.215 40.6725 -79.875 39.3125 C-79.215 39.3125 -78.555 39.3125 -77.875 39.3125 C-77.6275 38.52875 -77.38 37.745 -77.125 36.9375 C-75.66575497 33.87308543 -74.82485044 33.69524239 -71.875 32.3125 C-71.45927734 31.42884766 -71.45927734 31.42884766 -71.03515625 30.52734375 C-67.28521804 23.36837081 -57.96394229 17.0091877 -50.875 13.3125 C-49.885 13.3125 -48.895 13.3125 -47.875 13.3125 C-47.875 12.6525 -47.875 11.9925 -47.875 11.3125 C-46.555 11.3125 -45.235 11.3125 -43.875 11.3125 C-43.875 10.6525 -43.875 9.9925 -43.875 9.3125 C-29.14319408 3.50839 -15.90060584 -0.07944461 0 0 Z " fill="#29438D" transform="translate(317.875,23.6875)"/>
<path d="M0 0 C4.86460706 0.9315205 4.86460706 0.9315205 6.9375 3.5625 C7.27038775 6.59070472 7.16643323 9.52913466 6.9375 12.5625 C6.2775 12.5625 5.6175 12.5625 4.9375 12.5625 C4.85371094 13.08328125 4.76992187 13.6040625 4.68359375 14.140625 C3.64576677 17.50948743 1.84604286 20.33922743 0 23.3125 C-0.36029297 23.91449219 -0.72058594 24.51648438 -1.09179688 25.13671875 C-2.02329133 26.64975394 -3.03711836 28.11144869 -4.0625 29.5625 C-4.7225 29.5625 -5.3825 29.5625 -6.0625 29.5625 C-6.7225 31.5425 -7.3825 33.5225 -8.0625 35.5625 C-8.7225 35.5625 -9.3825 35.5625 -10.0625 35.5625 C-10.0625 36.5525 -10.0625 37.5425 -10.0625 38.5625 C-10.7225 38.5625 -11.3825 38.5625 -12.0625 38.5625 C-12.18625 39.18125 -12.31 39.8 -12.4375 40.4375 C-13.0625 42.5625 -13.0625 42.5625 -15.0625 44.5625 C-15.0625 43.2425 -15.0625 41.9225 -15.0625 40.5625 C-14.4025 40.5625 -13.7425 40.5625 -13.0625 40.5625 C-13.0625 39.2425 -13.0625 37.9225 -13.0625 36.5625 C-13.7225 36.5625 -14.3825 36.5625 -15.0625 36.5625 C-15.3925 35.5725 -15.7225 34.5825 -16.0625 33.5625 C-20.87291634 34.34010767 -20.87291634 34.34010767 -24.5703125 37.25390625 C-25.42068746 38.5141925 -26.23927745 39.7967012 -27.01953125 41.1015625 C-27.36371094 41.58367187 -27.70789063 42.06578125 -28.0625 42.5625 C-28.7225 42.5625 -29.3825 42.5625 -30.0625 42.5625 C-30.7225 45.5325 -31.3825 48.5025 -32.0625 51.5625 C-32.7225 51.5625 -33.3825 51.5625 -34.0625 51.5625 C-34.3925 52.2225 -34.7225 52.8825 -35.0625 53.5625 C-37.125 54.1875 -37.125 54.1875 -39.0625 54.5625 C-38.4025 52.9125 -37.7425 51.2625 -37.0625 49.5625 C-36.4025 49.5625 -35.7425 49.5625 -35.0625 49.5625 C-34.918125 48.94375 -34.77375 48.325 -34.625 47.6875 C-34.0625 45.5625 -34.0625 45.5625 -33.0625 43.5625 C-32.4025 43.5625 -31.7425 43.5625 -31.0625 43.5625 C-30.98 43.046875 -30.8975 42.53125 -30.8125 42 C-29.74109775 38.51794268 -27.92726395 35.69049115 -26.0625 32.5625 C-25.4025 32.5625 -24.7425 32.5625 -24.0625 32.5625 C-23.629375 31.44875 -23.629375 31.44875 -23.1875 30.3125 C-22.23947356 27.99510203 -21.21404089 25.78332885 -20.0625 23.5625 C-19.4025 23.5625 -18.7425 23.5625 -18.0625 23.5625 C-17.81113281 22.6859375 -17.55976563 21.809375 -17.30078125 20.90625 C-15.26699749 15.41439226 -11.59699154 11.17716497 -8.0625 6.5625 C-7.35673828 5.55123047 -7.35673828 5.55123047 -6.63671875 4.51953125 C-4.57262113 1.6889609 -3.5013286 0.64310117 0 0 Z " fill="#2C458E" transform="translate(169.0625,252.4375)"/>
<path d="M0 0 C2.475 0.495 2.475 0.495 5 1 C5 1.99 5 2.98 5 4 C5.66 4.33 6.32 4.66 7 5 C6.71517632 6.41805831 6.42181856 7.83440379 6.125 9.25 C5.96257812 10.03890625 5.80015625 10.8278125 5.6328125 11.640625 C5.00849925 13.96831144 4.15161458 15.89031952 3 18 C2.34 18 1.68 18 1 18 C0.91621094 18.53109375 0.83242188 19.0621875 0.74609375 19.609375 C-0.2787853 22.89328065 -2.03011125 25.39409062 -3.9375 28.25 C-4.64777344 29.32765625 -5.35804688 30.4053125 -6.08984375 31.515625 C-6.72019531 32.33546875 -7.35054688 33.1553125 -8 34 C-8.66 34 -9.32 34 -10 34 C-10.66 33.34 -11.32 32.68 -12 32 C-12.45375 32.825 -12.9075 33.65 -13.375 34.5 C-13.91125 35.325 -14.4475 36.15 -15 37 C-15.66 37 -16.32 37 -17 37 C-17.495 35.515 -17.495 35.515 -18 34 C-18.99 34 -19.98 34 -21 34 C-21.495 32.515 -21.495 32.515 -22 31 C-21.01 29.515 -21.01 29.515 -20 28 C-19.34 28 -18.68 28 -18 28 C-17.87625 27.4225 -17.7525 26.845 -17.625 26.25 C-16.96183002 23.86258806 -16.41163433 22.04686978 -15 20 C-12.375 19.25 -12.375 19.25 -10 19 C-10.185625 18.443125 -10.37125 17.88625 -10.5625 17.3125 C-11.09805974 14.48168425 -10.911466 12.73439801 -10 10 C-8.68662604 8.9739266 -7.35335895 7.97272675 -6 7 C-5.20376178 4.90584196 -5.20376178 4.90584196 -5 3 C-4.01 3 -3.02 3 -2 3 C-1.34 2.01 -0.68 1.02 0 0 Z " fill="#213D8B" transform="translate(313,365)"/>
<path d="M0 0 C0.33 0 0.66 0 1 0 C1 8.91 1 17.82 1 27 C0.67 26.34 0.34 25.68 0 25 C-2.9297008 27.82506863 -5.50174717 30.78796065 -8 34 C-8.99 33.67 -9.98 33.34 -11 33 C-10.98839844 32.07316406 -10.97679687 31.14632812 -10.96484375 30.19140625 C-10.95582031 28.99386719 -10.94679687 27.79632813 -10.9375 26.5625 C-10.92589844 25.36753906 -10.91429687 24.17257813 -10.90234375 22.94140625 C-10.66098208 20.11126659 -10.66098208 20.11126659 -12 19 C-12.39277298 13.76302687 -11.25447333 9.04029461 -10 4 C-7.69 4.33 -5.38 4.66 -3 5 C-2.690625 4.360625 -2.38125 3.72125 -2.0625 3.0625 C-1 1 -1 1 0 0 Z M-10 17 C-9.67 17.66 -9.34 18.32 -9 19 C-8.34 18.34 -7.68 17.68 -7 17 C-7.99 17 -8.98 17 -10 17 Z " fill="#1D3A87" transform="translate(189,175)"/>
<path d="M0 0 C3.465 1.485 3.465 1.485 7 3 C7 4.98 7 6.96 7 9 C9.31 9.66 11.62 10.32 14 11 C15.7578125 16.95703125 15.7578125 16.95703125 16 19 C12.26506024 24.60240964 12.26506024 24.60240964 8.8125 25.6875 C8.214375 25.790625 7.61625 25.89375 7 26 C7 25.34 7 24.68 7 24 C6.34 24 5.68 24 5 24 C1 19.52941176 1 19.52941176 1 17 C0.34 17 -0.32 17 -1 17 C-3.30841121 5.16939252 -3.30841121 5.16939252 0 0 Z " fill="#1E3B8B" transform="translate(379,49)"/>
<path d="M0 0 C3.65316671 1.24976756 4.78065836 1.67098753 7 5 C7.37569856 8.75698557 7.1642235 9.75366476 5 13 C6.32 13 7.64 13 9 13 C8.79375 12.236875 8.5875 11.47375 8.375 10.6875 C8 8 8 8 10 5 C12.625 4.8125 12.625 4.8125 15 5 C14.67 5.99 14.34 6.98 14 8 C13.34 8 12.68 8 12 8 C11.34 9.98 10.68 11.96 10 14 C9.34 14 8.68 14 8 14 C8 14.99 8 15.98 8 17 C7.34 17 6.68 17 6 17 C5.87625 17.61875 5.7525 18.2375 5.625 18.875 C5 21 5 21 3 23 C3 21.68 3 20.36 3 19 C3.66 19 4.32 19 5 19 C5 17.68 5 16.36 5 15 C4.34 15 3.68 15 3 15 C2.67 14.01 2.34 13.02 2 12 C-2.81041634 12.77760767 -2.81041634 12.77760767 -6.5078125 15.69140625 C-7.35818746 16.9516925 -8.17677745 18.2342012 -8.95703125 19.5390625 C-9.30121094 20.02117187 -9.64539063 20.50328125 -10 21 C-10.66 21 -11.32 21 -12 21 C-12.66 23.97 -13.32 26.94 -14 30 C-14.66 30 -15.32 30 -16 30 C-16.33 30.66 -16.66 31.32 -17 32 C-19.0625 32.625 -19.0625 32.625 -21 33 C-20.34 31.35 -19.68 29.7 -19 28 C-18.34 28 -17.68 28 -17 28 C-16.7834375 27.071875 -16.7834375 27.071875 -16.5625 26.125 C-16 24 -16 24 -15 22 C-14.34 22 -13.68 22 -13 22 C-12.9175 21.484375 -12.835 20.96875 -12.75 20.4375 C-11.67859775 16.95544268 -9.86476395 14.12799115 -8 11 C-7.34 11 -6.68 11 -6 11 C-5.566875 9.88625 -5.566875 9.88625 -5.125 8.75 C-4.17697356 6.43260203 -3.15154089 4.22082885 -2 2 C-1.34 2 -0.68 2 0 2 C0 1.34 0 0.68 0 0 Z " fill="#27418C" transform="translate(151,274)"/>
<path d="M0 0 C2.11466551 4.22933103 0.23407374 9.65014503 -1 14 C-3.04015206 17.89697248 -5.39400824 21.46031065 -8 25 C-9.32 24.67 -10.64 24.34 -12 24 C-12.33 22.02 -12.66 20.04 -13 18 C-14.59628479 17.9254644 -14.59628479 17.9254644 -18 20 C-17.505 15.545 -17.505 15.545 -17 11 C-16.34 11 -15.68 11 -15 11 C-14.67 10.01 -14.34 9.02 -14 8 C-12.328125 6.9375 -12.328125 6.9375 -10.25 6 C-4.75426873 3.57007649 -4.75426873 3.57007649 0 0 Z " fill="#26418D" transform="translate(396,170)"/>
<path d="M0 0 C0 0.33 0 0.66 0 1 C-2.05078125 1.22786458 -4.1015625 1.45572917 -6.15234375 1.68359375 C-8.01140229 1.81886614 -8.01140229 1.81886614 -9 3 C-8.01 3.33 -7.02 3.66 -6 4 C-6.309375 4.5775 -6.61875 5.155 -6.9375 5.75 C-8.19285032 8.21905868 -8.19285032 8.21905868 -9 12 C-14.94 12 -20.88 12 -27 12 C-26.01 10.35 -25.02 8.7 -24 7 C-24 6.01 -24 5.02 -24 4 C-24 2.68 -24 1.36 -24 0 C-15.96992764 -1.50563857 -8.08567124 -0.63782601 0 0 Z " fill="#1D3A8A" transform="translate(330,25)"/>
<path d="M0 0 C1.16080078 0.00902344 2.32160156 0.01804688 3.51757812 0.02734375 C6.36610108 0.05078838 9.21419078 0.08360478 12.0625 0.125 C12.5575 1.115 12.5575 1.115 13.0625 2.125 C11.95007935 2.154729 11.95007935 2.154729 10.81518555 2.18505859 C7.45976166 2.28022928 4.10496714 2.38994094 0.75 2.5 C-1.00086914 2.54640625 -1.00086914 2.54640625 -2.78710938 2.59375 C-4.46450195 2.65175781 -4.46450195 2.65175781 -6.17578125 2.7109375 C-7.7232605 2.75806885 -7.7232605 2.75806885 -9.30200195 2.80615234 C-12.16593236 2.95174629 -12.16593236 2.95174629 -14.9375 5.125 C-14.9375 6.445 -14.9375 7.765 -14.9375 9.125 C-13.6175 9.455 -12.2975 9.785 -10.9375 10.125 C-11.2675 11.115 -11.5975 12.105 -11.9375 13.125 C-5.0075 13.455 1.9225 13.785 9.0625 14.125 C9.0625 14.455 9.0625 14.785 9.0625 15.125 C4.83449129 15.38044312 0.60535494 15.59975055 -3.625 15.8125 C-5.42227539 15.92174805 -5.42227539 15.92174805 -7.25585938 16.03320312 C-8.99125977 16.11538086 -8.99125977 16.11538086 -10.76171875 16.19921875 C-11.82479248 16.25682373 -12.88786621 16.31442871 -13.9831543 16.3737793 C-17.43130259 16.08341791 -19.20959902 15.22439749 -21.9375 13.125 C-23.15083973 9.63664826 -23.20035217 7.84784346 -21.9375 4.375 C-16.64262757 -1.58173149 -7.27351745 -0.10751078 0 0 Z " fill="#4E629E" transform="translate(248.9375,206.875)"/>
<path d="M0 0 C1.65234375 1.0546875 1.65234375 1.0546875 2.90234375 3.4921875 C2.56291213 6.97136164 1.23353193 7.75254669 -1.34765625 10.0546875 C-2.71586676 12.03099157 -4.05716817 14.02677766 -5.34765625 16.0546875 C-7.86678013 15.71880432 -9.01961744 15.48113796 -10.59765625 13.4296875 C-11.59933002 10.25772057 -11.40679673 7.36655447 -11.34765625 4.0546875 C-11.7762062 1.74431835 -11.7762062 1.74431835 -12.34765625 0.0546875 C-7.57675239 -2.21149184 -4.69715683 -2.03753828 0 0 Z " fill="#28438D" transform="translate(129.34765625,406.9453125)"/>
<path d="M0 0 C0 0.99 0 1.98 0 3 C0.66 3 1.32 3 2 3 C2 4.32 2 5.64 2 7 C1.34 7 0.68 7 0 7 C-0.12375 7.804375 -0.2475 8.60875 -0.375 9.4375 C-0.58125 10.283125 -0.7875 11.12875 -1 12 C-1.99 12.495 -1.99 12.495 -3 13 C-3 12.34 -3 11.68 -3 11 C-4.65 11 -6.3 11 -8 11 C-8.66 12.65 -9.32 14.3 -10 16 C-10.99 15.67 -11.98 15.34 -13 15 C-13.99 15.33 -14.98 15.66 -16 16 C-15.6875 12.625 -15.6875 12.625 -15 9 C-14.01 8.34 -13.02 7.68 -12 7 C-11.566875 6.195625 -11.13375 5.39125 -10.6875 4.5625 C-7.99040895 0.4669173 -4.77156272 -1.59052091 0 0 Z " fill="#1C3A89" transform="translate(154,286)"/>
<path d="M0 0 C2.97 0.495 2.97 0.495 6 1 C6 1.66 6 2.32 6 3 C6.99 3.33 7.98 3.66 9 4 C9.33 6.31 9.66 8.62 10 11 C9.38125 11.04125 8.7625 11.0825 8.125 11.125 C7.42375 11.41375 6.7225 11.7025 6 12 C4.6954344 14.99615946 4.6954344 14.99615946 4 18 C2.125 17.75 2.125 17.75 0 17 C-1.125 15 -1.125 15 -2 13 C-2.66 12.67 -3.32 12.34 -4 12 C-4 9.69 -4 7.38 -4 5 C-2.35 4.67 -0.7 4.34 1 4 C0.67 2.68 0.34 1.36 0 0 Z " fill="#253F8B" transform="translate(306,228)"/>
<path d="M0 0 C3.465 1.485 3.465 1.485 7 3 C7.74304413 7.75548243 5.73243053 10.56068738 3.2890625 14.42578125 C2.86367188 14.94527344 2.43828125 15.46476562 2 16 C1.34 16 0.68 16 0 16 C0 15.34 0 14.68 0 14 C-0.66 14 -1.32 14 -2 14 C-2.05437607 12.41705218 -2.09296271 10.83355744 -2.125 9.25 C-2.14820313 8.36828125 -2.17140625 7.4865625 -2.1953125 6.578125 C-1.99139502 3.8864142 -1.36551721 2.30095026 0 0 Z " fill="#1E3A88" transform="translate(379,49)"/>
<path d="M0 0 C0.33 0 0.66 0 1 0 C1 19.45101351 1 19.45101351 -0.5 26.6875 C-0.64308594 27.38939453 -0.78617188 28.09128906 -0.93359375 28.81445312 C-1.28646082 30.54350175 -1.64288604 32.27182353 -2 34 C-1.34 34.33 -0.68 34.66 0 35 C-0.33 39.29 -0.66 43.58 -1 48 C-1.33 48 -1.66 48 -2 48 C-4.1427731 31.43471563 -4.32447712 16.21678922 0 0 Z M0 32 C0.99 32.33 1.98 32.66 3 33 C2.01 33.33 1.02 33.66 0 34 C0 33.34 0 32.68 0 32 Z " fill="#51689D" transform="translate(179,160)"/>
<path d="M0 0 C0.66 0 1.32 0 2 0 C2.3690205 19.96810934 2.3690205 19.96810934 0 29 C-0.99 28.67 -1.98 28.34 -3 28 C-3 27.34 -3 26.68 -3 26 C-3.99 26 -4.98 26 -6 26 C-6.33 24.35 -6.66 22.7 -7 21 C-3.98968256 20.06576355 -3.13349732 19.95550089 0 21 C0 14.07 0 7.14 0 0 Z " fill="#485C9C" transform="translate(414,112)"/>
<path d="M0 0 C1.65 0.33 3.3 0.66 5 1 C5 1.99 5 2.98 5 4 C5.66 4.33 6.32 4.66 7 5 C6.37240135 7.92879371 5.41377341 10.36095629 4 13 C3.34 12.34 2.68 11.68 2 11 C-0.57061311 10.35232207 -0.57061311 10.35232207 -3 10 C-3 9.01 -3 8.02 -3 7 C-3.99 6.34 -4.98 5.68 -6 5 C-5.67 4.34 -5.34 3.68 -5 3 C-4.01 3 -3.02 3 -2 3 C-1.34 2.01 -0.68 1.02 0 0 Z " fill="#1D3A8A" transform="translate(313,365)"/>
<path d="M0 0 C0.66 0.99 1.32 1.98 2 3 C1.67 3.99 1.34 4.98 1 6 C1 7.32 1 8.64 1 10 C0.236875 10.020625 -0.52625 10.04125 -1.3125 10.0625 C-2.199375 10.371875 -3.08625 10.68125 -4 11 C-5.68390585 14.3734758 -5.68390585 14.3734758 -7 18 C-8.5 19.75 -8.5 19.75 -10 21 C-10.515625 21.556875 -11.03125 22.11375 -11.5625 22.6875 C-13 24 -13 24 -15 24 C-15 23.34 -15 22.68 -15 22 C-14.34 22 -13.68 22 -13 22 C-12.77441406 21.15953125 -12.54882812 20.3190625 -12.31640625 19.453125 C-10.74704148 15.33645302 -8.56116137 12.25316313 -5.9375 8.75 C-2.71259952 4.53637988 -2.71259952 4.53637988 0 0 Z " fill="#395291" transform="translate(302,375)"/>
<path d="M0 0 C2.3125 -0.25 2.3125 -0.25 5 0 C6.9375 1.5625 6.9375 1.5625 8 4 C7.27671917 7.81366258 6.77068246 10.22931754 4 13 C0.875 13.125 0.875 13.125 -2 13 C-2 12.34 -2 11.68 -2 11 C-1.01 10.67 -0.02 10.34 1 10 C0.67 8.68 0.34 7.36 0 6 C-0.66 6 -1.32 6 -2 6 C-2 5.34 -2 4.68 -2 4 C-1.34 4 -0.68 4 0 4 C0 2.68 0 1.36 0 0 Z " fill="#1F3A88" transform="translate(354,33)"/>
<path d="M0 0 C0.66 0 1.32 0 2 0 C2.66 0.99 3.32 1.98 4 3 C4.99 2.34 5.98 1.68 7 1 C7.99 1 8.98 1 10 1 C10.33 2.98 10.66 4.96 11 7 C9.35 7 7.7 7 6 7 C5.67 9.64 5.34 12.28 5 15 C3.68 15 2.36 15 1 15 C1.226875 13.741875 1.45375 12.48375 1.6875 11.1875 C2.01955112 9.01379038 2.01955112 9.01379038 2 7 C0.5833253 5.2488427 0.5833253 5.2488427 -1 4 C-0.6875 1.8125 -0.6875 1.8125 0 0 Z " fill="#1D3B88" transform="translate(155,272)"/>
<path d="M0 0 C0.66 0.66 1.32 1.32 2 2 C1.72649309 4.00905577 1.38142654 6.00861232 1 8 C0.9104872 10.29946553 0.86938555 12.60113767 0.8671875 14.90234375 C0.86589844 16.20494141 0.86460937 17.50753906 0.86328125 18.84960938 C0.86537598 19.52145264 0.8674707 20.1932959 0.86962891 20.88549805 C0.87497592 22.9282985 0.86967036 24.97087824 0.86328125 27.01367188 C0.86457031 28.31755859 0.86585938 29.62144531 0.8671875 30.96484375 C0.86887939 32.73782837 0.86887939 32.73782837 0.87060547 34.54663086 C1.00344648 38.09198203 1.43753014 41.49922558 2 45 C1.34 45 0.68 45 0 45 C-0.66 43.68 -1.32 42.36 -2 41 C-2.99 41 -3.98 41 -5 41 C-5 39.35 -5 37.7 -5 36 C-3.515 35.505 -3.515 35.505 -2 35 C-1.97494385 34.11739502 -1.9498877 33.23479004 -1.92407227 32.32543945 C-1.8286647 29.03593385 -1.72944807 25.74658818 -1.62768555 22.45727539 C-1.58450196 21.03642225 -1.54281592 19.61552274 -1.50268555 18.19458008 C-1.44457905 16.1465053 -1.38100362 14.09866035 -1.31640625 12.05078125 C-1.27974854 10.82012939 -1.24309082 9.58947754 -1.20532227 8.3215332 C-1.02730577 5.44173016 -0.65390895 2.80412912 0 0 Z " fill="#6173A6" transform="translate(191,165)"/>
<path d="M0 0 C0.66 0 1.32 0 2 0 C2.5534764 2.07553648 3 3.84365964 3 6 C3.31802943 7.66965451 3.64984951 9.33678518 4 11 C4.99 11 5.98 11 7 11 C7 11.66 7 12.32 7 13 C6.34 13 5.68 13 5 13 C5 14.65 5 16.3 5 18 C2.525 17.01 2.525 17.01 0 16 C-0.33 16.66 -0.66 17.32 -1 18 C-1 17.34 -1 16.68 -1 16 C-1.66 16 -2.32 16 -3 16 C-2.34 14.35 -1.68 12.7 -1 11 C-0.34 11 0.32 11 1 11 C0.67 10.01 0.34 9.02 0 8 C-0.66 7.67 -1.32 7.34 -2 7 C-1.34 4.69 -0.68 2.38 0 0 Z " fill="#213D8D" transform="translate(373,192)"/>
<path d="M0 0 C2.04119788 1.61594832 4.04072937 3.2856382 6 5 C6 5.66 6 6.32 6 7 C6.66 7 7.32 7 8 7 C9.7265625 9.1171875 9.7265625 9.1171875 11.625 11.875 C12.57246094 13.23238281 12.57246094 13.23238281 13.5390625 14.6171875 C15 17 15 17 15 19 C13.02 19 11.04 19 9 19 C7.57741188 15.17679443 6.75957724 12.08718695 7 8 C5.865625 7.87625 4.73125 7.7525 3.5625 7.625 C2.386875 7.41875 1.21125 7.2125 0 7 C-1.33332095 4.3333581 -0.67102033 2.83319697 0 0 Z " fill="#50629F" transform="translate(386,52)"/>
<path d="M0 0 C1.5625 1.25 1.5625 1.25 3 3 C2.6875 5.1875 2.6875 5.1875 2 7 C1.34 7 0.68 7 0 7 C-0.66 8.98 -1.32 10.96 -2 13 C-2.66 13 -3.32 13 -4 13 C-4.66 14.98 -5.32 16.96 -6 19 C-7.1875 17.4375 -7.1875 17.4375 -8 15 C-7.11561594 12.4864874 -6.2054714 10.34509771 -5 8 C-4.484375 6.906875 -3.96875 5.81375 -3.4375 4.6875 C-2 2 -2 2 0 0 Z " fill="#385092" transform="translate(301,396)"/>
<path d="M0 0 C0.99 0.33 1.98 0.66 3 1 C3 1.66 3 2.32 3 3 C3.57878906 3.12503906 4.15757812 3.25007813 4.75390625 3.37890625 C7.01799288 4.00497542 8.86132689 4.84802302 10.9375 5.9375 C13.90740785 7.46408815 16.86916139 8.82593552 20 10 C17.28817788 12.60334924 16.10866187 12.99456691 12.25 13.1875 C11.1775 13.125625 10.105 13.06375 9 13 C8 9.125 8 9.125 8 8 C7.071875 7.9071875 7.071875 7.9071875 6.125 7.8125 C4 7 4 7 2.75 4.4375 C2.5025 3.633125 2.255 2.82875 2 2 C1.34 2 0.68 2 0 2 C0 1.34 0 0.68 0 0 Z " fill="#405596" transform="translate(225,256)"/>
<path d="M0 0 C0.0270043 1.45823212 0.04639787 2.91660675 0.0625 4.375 C0.07410156 5.18710937 0.08570313 5.99921875 0.09765625 6.8359375 C0 9 0 9 -1 11 C-1.66 11 -2.32 11 -3 11 C-5 7.25 -5 7.25 -5 5 C-7.97 4.505 -7.97 4.505 -11 4 C-10.67 3.01 -10.34 2.02 -10 1 C-6.78548731 -0.60725635 -3.56387464 -0.05748185 0 0 Z " fill="#1C3A85" transform="translate(375,48)"/>
<path d="M0 0 C1.32 0.66 2.64 1.32 4 2 C0.94900596 5.32366742 -2.23449516 7.54224226 -6.125 9.8125 C-7.17945313 10.43769531 -8.23390625 11.06289063 -9.3203125 11.70703125 C-10.64675781 12.34705078 -10.64675781 12.34705078 -12 13 C-12.66 12.67 -13.32 12.34 -14 12 C-13 10 -13 10 -10 9 C-9.26676204 6.98491642 -9.26676204 6.98491642 -9 5 C-7.02 4.67 -5.04 4.34 -3 4 C-3 3.34 -3 2.68 -3 2 C-2.01 1.34 -1.02 0.68 0 0 Z " fill="#445896" transform="translate(259,448)"/>
<path d="M0 0 C1.5 1.3125 1.5 1.3125 3 3 C3 3.99 3 4.98 3 6 C2.34 6 1.68 6 1 6 C0.34 7.65 -0.32 9.3 -1 11 C-1.99 11 -2.98 11 -4 11 C-4 10.34 -4 9.68 -4 9 C-4.99 9.33 -5.98 9.66 -7 10 C-6.67 8.35 -6.34 6.7 -6 5 C-5.01 5 -4.02 5 -3 5 C-2.690625 4.360625 -2.38125 3.72125 -2.0625 3.0625 C-1 1 -1 1 0 0 Z " fill="#203C86" transform="translate(227,85)"/>
<path d="M0 0 C1.69772436 3.29231593 3.17976612 6.65225514 4.625 10.0625 C5.29402344 11.62677734 5.29402344 11.62677734 5.9765625 13.22265625 C7 16 7 16 7 19 C7.66 19 8.32 19 9 19 C8.67 19.66 8.34 20.32 8 21 C7.34 20.67 6.68 20.34 6 20 C6 19.34 6 18.68 6 18 C5.38125 17.9175 4.7625 17.835 4.125 17.75 C2 17 2 17 0.625 15.3125 C-0.2522262 12.06676305 0.75358566 10.04679062 2 7 C1.01 7 0.02 7 -1 7 C-0.67 4.69 -0.34 2.38 0 0 Z " fill="#4B5E9C" transform="translate(193,210)"/>
<path d="M0 0 C0 3 0 3 -1 6 C-2.2065625 7.175625 -2.2065625 7.175625 -3.4375 8.375 C-6.140974 10.76781246 -6.140974 10.76781246 -6.9375 13.75 C-7.288125 14.4925 -7.63875 15.235 -8 16 C-11.125 16.8125 -11.125 16.8125 -14 17 C-14 16.34 -14 15.68 -14 15 C-13.34 15 -12.68 15 -12 15 C-11.7525 14.21625 -11.505 13.4325 -11.25 12.625 C-9.79075497 9.56058543 -8.94985044 9.38274239 -6 8 C-5.29848848 6.6846659 -4.63474075 5.34882408 -4 4 C-2.70529025 2.62913085 -1.37849103 1.28659163 0 0 Z " fill="#465B94" transform="translate(252,48)"/>
<path d="M0 0 C0.66 1.32 1.32 2.64 2 4 C1.04867187 4.35191406 1.04867187 4.35191406 0.078125 4.7109375 C-2.18250739 5.82290908 -2.18250739 5.82290908 -2.828125 8.1640625 C-2.96734375 8.97617187 -3.1065625 9.78828125 -3.25 10.625 C-3.39953125 11.44226563 -3.5490625 12.25953125 -3.703125 13.1015625 C-3.80109375 13.72804688 -3.8990625 14.35453125 -4 15 C-4.66 15 -5.32 15 -6 15 C-6.33 15.66 -6.66 16.32 -7 17 C-9.0625 17.625 -9.0625 17.625 -11 18 C-10.34 16.35 -9.68 14.7 -9 13 C-8.34 13 -7.68 13 -7 13 C-6.855625 12.38125 -6.71125 11.7625 -6.5625 11.125 C-6 9 -6 9 -5 7 C-4.34 7 -3.68 7 -3 7 C-2.87625 6.401875 -2.7525 5.80375 -2.625 5.1875 C-2 3 -2 3 0 0 Z " fill="#51649B" transform="translate(141,289)"/>
<path d="M0 0 C2.625 0.9375 2.625 0.9375 5 2 C3.44298069 6.67105792 0.91552627 10.08705685 -2 14 C-2.93343555 10.93299749 -3.03969872 8.49280191 -2.6875 5.3125 C-2.60886719 4.52488281 -2.53023437 3.73726563 -2.44921875 2.92578125 C-2.30097656 2.29027344 -2.15273437 1.65476562 -2 1 C-1.34 0.67 -0.68 0.34 0 0 Z " fill="#3D5492" transform="translate(148,296)"/>
<path d="M0 0 C0.33 0.66 0.66 1.32 1 2 C3.64 1.67 6.28 1.34 9 1 C9 1.99 9 2.98 9 4 C9.99 4.33 10.98 4.66 12 5 C11.67 6.32 11.34 7.64 11 9 C11 8.34 11 7.68 11 7 C10.01 7.33 9.02 7.66 8 8 C7.01 7.34 6.02 6.68 5 6 C4.34 6 3.68 6 3 6 C2.34 6.99 1.68 7.98 1 9 C-0.07077375 5.78767875 0 3.36062193 0 0 Z " fill="#1D3A88" transform="translate(329,329)"/>
<path d="M0 0 C2.625 -0.1875 2.625 -0.1875 5 0 C4.67 0.99 4.34 1.98 4 3 C3.34 3 2.68 3 2 3 C1.34 4.98 0.68 6.96 0 9 C-0.66 9 -1.32 9 -2 9 C-2 9.99 -2 10.98 -2 12 C-2.66 12 -3.32 12 -4 12 C-4.12375 12.61875 -4.2475 13.2375 -4.375 13.875 C-5 16 -5 16 -7 18 C-7 16.68 -7 15.36 -7 14 C-6.34 14 -5.68 14 -5 14 C-5 12.68 -5 11.36 -5 10 C-5.66 9.67 -6.32 9.34 -7 9 C-5.02 8.67 -3.04 8.34 -1 8 C-1.309375 6.8553125 -1.309375 6.8553125 -1.625 5.6875 C-2 3 -2 3 0 0 Z " fill="#56699D" transform="translate(161,279)"/>
<path d="M0 0 C0.99 0 1.98 0 3 0 C3.1953125 2.05078125 3.390625 4.1015625 3.5859375 6.15234375 C3.72257812 6.76207031 3.85921875 7.37179687 4 8 C4.66 8.33 5.32 8.66 6 9 C7.10348459 12.08142868 7.10523224 15.00234962 7.0625 18.25 C7.05347656 19.14203125 7.04445313 20.0340625 7.03515625 20.953125 C7.02355469 21.62859375 7.01195312 22.3040625 7 23 C6.67 23 6.34 23 6 23 C5.81824219 22.20335937 5.63648438 21.40671875 5.44921875 20.5859375 C4.11707235 14.97042806 2.63779873 10.14998799 0 5 C-0.1875 2.125 -0.1875 2.125 0 0 Z " fill="#4D619B" transform="translate(324,266)"/>
<path d="M0 0 C0.33 0.66 0.66 1.32 1 2 C0.0625 4.125 0.0625 4.125 -1 6 C-1.99 6 -2.98 6 -4 6 C-4 6.66 -4 7.32 -4 8 C-4.66 8 -5.32 8 -6 8 C-6 6.02 -6 4.04 -6 2 C-7.98 2.99 -7.98 2.99 -10 4 C-9 1 -9 1 -7.25 -0.25 C-4.43049204 -1.18983599 -2.80424069 -0.90948347 0 0 Z " fill="#1C3A88" transform="translate(330,257)"/>
<path d="M0 0 C1.32 0.66 2.64 1.32 4 2 C3.690625 2.825 3.38125 3.65 3.0625 4.5 C1.88122417 8.39126155 1.41775832 11.96166953 1 16 C-0.65 14.68 -2.3 13.36 -4 12 C-3.34 12 -2.68 12 -2 12 C-2.02320313 11.38511719 -2.04640625 10.77023438 -2.0703125 10.13671875 C-2.08835937 9.32847656 -2.10640625 8.52023438 -2.125 7.6875 C-2.14820313 6.88699219 -2.17140625 6.08648437 -2.1953125 5.26171875 C-2 3 -2 3 0 0 Z " fill="#2B4691" transform="translate(376,47)"/>
<path d="M0 0 C0.61875 0.165 1.2375 0.33 1.875 0.5 C3.96063386 1.07634644 3.96063386 1.07634644 6 1 C7.625 3.5 7.625 3.5 9 6 C8.01 7.485 8.01 7.485 7 9 C6.01 9 5.02 9 4 9 C4 8.34 4 7.68 4 7 C3.01 7 2.02 7 1 7 C0.67 4.69 0.34 2.38 0 0 Z " fill="#1C3987" transform="translate(248,443)"/>
<path d="M0 0 C1.65 0.33 3.3 0.66 5 1 C5.33 1.99 5.66 2.98 6 4 C4.68 5.32 3.36 6.64 2 8 C2.66 8.33 3.32 8.66 4 9 C2.33388095 9.042721 0.66617115 9.04063832 -1 9 C-2 8 -2 8 -2.1875 5.625 C-2 3 -2 3 0 0 Z " fill="#1D3B8A" transform="translate(236,268)"/>
<path d="M0 0 C0.556875 0.185625 1.11375 0.37125 1.6875 0.5625 C4.03695299 1.16549567 4.03695299 1.16549567 6.5 0.4375 C9.43621224 -0.07633714 10.52571396 0.4421162 13 2 C12.34 3.32 11.68 4.64 11 6 C10.34 5.34 9.68 4.68 9 4 C8.34 4.66 7.68 5.32 7 6 C5.68 5.01 4.36 4.02 3 3 C2.67 3.66 2.34 4.32 2 5 C1.01 5 0.02 5 -1 5 C-0.67 3.35 -0.34 1.7 0 0 Z " fill="#1C3885" transform="translate(121,321)"/>
<path d="M0 0 C1.96301592 3.50538557 2.95902388 7.13351728 4 11 C3.01 11 2.02 11 1 11 C-3 6.65714286 -3 6.65714286 -3 4 C-3.66 4 -4.32 4 -5 4 C-5.33 3.01 -5.66 2.02 -6 1 C-5.34 1 -4.68 1 -4 1 C-4 1.66 -4 2.32 -4 3 C-3.34 3 -2.68 3 -2 3 C-2 2.34 -2 1.68 -2 1 C-1.34 0.67 -0.68 0.34 0 0 Z " fill="#354C8E" transform="translate(383,62)"/>
<path d="M0 0 C0.99 1.485 0.99 1.485 2 3 C1.67 3.66 1.34 4.32 1 5 C0.67 3.35 0.34 1.7 0 0 Z M-5 3 C-2.525 3.495 -2.525 3.495 0 4 C0.66 5.98 1.32 7.96 2 10 C-1 11 -1 11 -4 11 C-4.74342169 8.21216865 -5 5.87722583 -5 3 Z " fill="#1D3C84" transform="translate(209,248)"/>
<path d="M0 0 C0.99 0.33 1.98 0.66 3 1 C2.45925627 4.78520613 0.92427254 6.59177555 -2 9 C-2.99 9 -3.98 9 -5 9 C-5.66 7.02 -6.32 5.04 -7 3 C-4.69 3.66 -2.38 4.32 0 5 C0 3.35 0 1.7 0 0 Z " fill="#435695" transform="translate(359,231)"/>
<path d="M0 0 C0.66 0.66 1.32 1.32 2 2 C-0.64 7.28 -3.28 12.56 -6 18 C-6.33 16.68 -6.66 15.36 -7 14 C-6.34 13.01 -5.68 12.02 -5 11 C-4.83300768 7.87478167 -4.83300768 7.87478167 -5 5 C-4.34 5.33 -3.68 5.66 -3 6 C-2.67 5.34 -2.34 4.68 -2 4 C-1.34 4 -0.68 4 0 4 C0 2.68 0 1.36 0 0 Z " fill="#485B95" transform="translate(337,342)"/>
<path d="M0 0 C0 0.33 0 0.66 0 1 C-1.27875 1.144375 -2.5575 1.28875 -3.875 1.4375 C-6.25692894 1.70642746 -7.84452691 1.92226346 -10 3 C-10 2.34 -10 1.68 -10 1 C-14.62 1.33 -19.24 1.66 -24 2 C-24 1.34 -24 0.68 -24 0 C-15.96992764 -1.50563857 -8.08567124 -0.63782601 0 0 Z " fill="#24397A" transform="translate(330,25)"/>
<path d="M0 0 C5 9.61538462 5 9.61538462 5 14 C4.01 13.67 3.02 13.34 2 13 C1.3125 10.9375 1.3125 10.9375 1 9 C-0.32 8.67 -1.64 8.34 -3 8 C-2.01 5.36 -1.02 2.72 0 0 Z " fill="#4C649B" transform="translate(124,393)"/>
<path d="M0 0 C0.33 0 0.66 0 1 0 C1.22519106 3.79086457 1.42729249 7.58261058 1.625 11.375 C1.68945312 12.45523437 1.75390625 13.53546875 1.8203125 14.6484375 C1.871875 15.6796875 1.9234375 16.7109375 1.9765625 17.7734375 C2.02893066 18.72653809 2.08129883 19.67963867 2.13525391 20.66162109 C2 23 2 23 0 25 C-1.19445794 19.60281966 -0.92044183 14.58875569 -0.5625 9.125 C-0.51029297 8.24585938 -0.45808594 7.36671875 -0.40429688 6.4609375 C-0.27552439 4.30692501 -0.13858537 2.15340341 0 0 Z " fill="#788AB6" transform="translate(121,365)"/>
<path d="M0 0 C0.33 0.66 0.66 1.32 1 2 C-0.3921875 2.2475 -0.3921875 2.2475 -1.8125 2.5 C-5.39156248 4.1842647 -5.58971722 4.6106519 -6.875 8.125 C-7.27279427 9.40982976 -7.65532565 10.69991255 -8 12 C-10 9 -10 9 -9.875 6 C-9 3 -9 3 -7.25 1.125 C-4.63695229 -0.18152386 -2.88466476 -0.24038873 0 0 Z " fill="#4F6094" transform="translate(236,208)"/>
<path d="M0 0 C0.33 0 0.66 0 1 0 C1.59244521 6.66500865 -0.51677155 11.86952975 -3 18 C-3.33 18 -3.66 18 -4 18 C-4.12587413 12.46153846 -4.12587413 12.46153846 -3.4375 9.9375 C-2.86639328 7.40831308 -3.37797049 5.48811803 -4 3 C-3.01 2.67 -2.02 2.34 -1 2 C-0.67 1.34 -0.34 0.68 0 0 Z " fill="#4E619C" transform="translate(412,141)"/>
<path d="M0 0 C0 0.66 0 1.32 0 2 C-1.65 2 -3.3 2 -5 2 C-5 2.99 -5 3.98 -5 5 C-10.73303505 6.57300962 -15.15659442 7.24327778 -21 6 C-21 5.67 -21 5.34 -21 5 C-20.04738281 4.80664062 -19.09476563 4.61328125 -18.11328125 4.4140625 C-16.23189453 4.02347656 -16.23189453 4.02347656 -14.3125 3.625 C-13.07113281 3.36976563 -11.82976562 3.11453125 -10.55078125 2.8515625 C-7.04656785 2.01116809 -3.57435046 0 0 0 Z " fill="#5D6DA1" transform="translate(239,448)"/>
<path d="M0 0 C0.99 0 1.98 0 3 0 C1.89667042 3.81921776 1.06899967 6.42204028 -2 9 C-2.515625 9.556875 -3.03125 10.11375 -3.5625 10.6875 C-5 12 -5 12 -7 12 C-7 11.34 -7 10.68 -7 10 C-6.34 10 -5.68 10 -5 10 C-4.731875 9.0925 -4.46375 8.185 -4.1875 7.25 C-3.09365038 4.25630631 -2.19576514 2.28359575 0 0 Z " fill="#586AA0" transform="translate(294,387)"/>
<path d="M0 0 C1.60031344 3.20062687 0.03173691 5.72271806 -1 9 C-1.66 9 -2.32 9 -3 9 C-3.268125 9.639375 -3.53625 10.27875 -3.8125 10.9375 C-5 13 -5 13 -8 14 C-7.67 12.68 -7.34 11.36 -7 10 C-6.34 10 -5.68 10 -5 10 C-4.731875 9.278125 -4.46375 8.55625 -4.1875 7.8125 C-3.01017502 5.02409874 -1.60854116 2.55904276 0 0 Z " fill="#626EA1" transform="translate(363,204)"/>
<path d="M0 0 C2.61455364 3.12397957 3.91744207 6.07866499 5.1875 9.9375 C5.53167969 10.95714844 5.87585938 11.97679688 6.23046875 13.02734375 C6.95813069 15.83826121 7.15405496 18.11545361 7 21 C4.9375 18.875 4.9375 18.875 3 16 C3.25 12.6875 3.25 12.6875 4 10 C3.34 10 2.68 10 2 10 C0.39644899 6.49223216 -0.22036864 3.85645121 0 0 Z " fill="#6877A6" transform="translate(406,80)"/>
<path d="M0 0 C1.54753747 2.9134075 2.66269331 5.78327253 3.625 8.9375 C3.88539062 9.77152344 4.14578125 10.60554688 4.4140625 11.46484375 C5.01494131 14.06464605 5.10462243 16.34163909 5 19 C3.50014063 16.06136151 2.10772909 13.09717033 0.8125 10.0625 C0.44769531 9.22847656 0.08289063 8.39445312 -0.29296875 7.53515625 C-1.10339518 4.62926259 -0.80717433 2.8739519 0 0 Z " fill="#6071A2" transform="translate(111,394)"/>
<path d="M0 0 C0.33 0.99 0.66 1.98 1 3 C3.00016466 4.20882096 3.00016466 4.20882096 5 5 C5 6.65 5 8.3 5 10 C4.34 10 3.68 10 3 10 C2.34 9.01 1.68 8.02 1 7 C0.01 6.34 -0.98 5.68 -2 5 C-2 4.34 -2 3.68 -2 3 C-2.99 3.33 -3.98 3.66 -5 4 C-5 3.34 -5 2.68 -5 2 C-2 0 -2 0 0 0 Z " fill="#1F3A8A" transform="translate(360,218)"/>
<path d="M0 0 C0.66 0 1.32 0 2 0 C2.33 0.99 2.66 1.98 3 3 C1.38007835 3.86375896 -0.24611861 4.71575854 -1.875 5.5625 C-3.23238281 6.27599609 -3.23238281 6.27599609 -4.6171875 7.00390625 C-5.40351563 7.33261719 -6.18984375 7.66132812 -7 8 C-7.66 7.67 -8.32 7.34 -9 7 C-8.67 6.34 -8.34 5.68 -8 5 C-8.66 4.67 -9.32 4.34 -10 4 C-9.34 3.67 -8.68 3.34 -8 3 C-7.34 3.33 -6.68 3.66 -6 4 C-6 3.34 -6 2.68 -6 2 C-4.02 2 -2.04 2 0 2 C0 1.34 0 0.68 0 0 Z " fill="#5269A2" transform="translate(286,41)"/>
<path d="M0 0 C0.625 3.0625 0.625 3.0625 1 6 C-1.97 5.505 -1.97 5.505 -5 5 C-5.33 3.35 -5.66 1.7 -6 0 C-2.25 -1.125 -2.25 -1.125 0 0 Z " fill="#3A4E8C" transform="translate(353,234)"/>
<path d="M0 0 C0.33 0 0.66 0 1 0 C1 1.98 1 3.96 1 6 C0.01 6 -0.98 6 -2 6 C-2.12375 6.598125 -2.2475 7.19625 -2.375 7.8125 C-3 10 -3 10 -5 13 C-5.99 12.67 -6.98 12.34 -8 12 C-6.69161864 9.997193 -5.37857806 7.99773901 -4.0625 6 C-3.50272461 5.14148438 -3.50272461 5.14148438 -2.93164062 4.265625 C-1.98055411 2.82614271 -0.99305724 1.41085511 0 0 Z " fill="#5A6BA3" transform="translate(229,77)"/>
<path d="M0 0 C0.99 0 1.98 0 3 0 C3 1.65 3 3.3 3 5 C2.34 5 1.68 5 1 5 C0.34 6.98 -0.32 8.96 -1 11 C-2.1875 9.4375 -2.1875 9.4375 -3 7 C-1.625 3.25 -1.625 3.25 0 0 Z " fill="#405597" transform="translate(296,404)"/>
<path d="M0 0 C1.32 0 2.64 0 4 0 C4 0.66 4 1.32 4 2 C4.94875 1.938125 5.8975 1.87625 6.875 1.8125 C7.90625 1.874375 8.9375 1.93625 10 2 C12 5 12 5 11.625 7.1875 C11.41875 7.785625 11.2125 8.38375 11 9 C9 7.625 9 7.625 7 6 C7 5.34 7 4.68 7 4 C6.21625 3.71125 5.4325 3.4225 4.625 3.125 C2 2 2 2 0 0 Z " fill="#6574A8" transform="translate(360,50)"/>
<path d="M0 0 C0.99 0.33 1.98 0.66 3 1 C1.69386058 4.91841827 0.16870152 7.32640809 -3 10 C-3.66 10 -4.32 10 -5 10 C-5 8.68 -5 7.36 -5 6 C-3.68 6 -2.36 6 -1 6 C-1.020625 5.195625 -1.04125 4.39125 -1.0625 3.5625 C-1 1 -1 1 0 0 Z " fill="#4E659B" transform="translate(278,431)"/>
<path d="M0 0 C1.32 0 2.64 0 4 0 C3.67 2.64 3.34 5.28 3 8 C2.01 8 1.02 8 0 8 C-1.125 5.6875 -1.125 5.6875 -2 3 C-1.34 2.01 -0.68 1.02 0 0 Z " fill="#1D398E" transform="translate(274,429)"/>
<path d="M0 0 C0.99 0 1.98 0 3 0 C3.77112541 4.72314313 4.09764874 9.21521178 4 14 C1.90284215 10.85426323 1.47995441 8.98543749 0.875 5.3125 C0.70742187 4.31863281 0.53984375 3.32476562 0.3671875 2.30078125 C0.24601563 1.54152344 0.12484375 0.78226563 0 0 Z " fill="#526599" transform="translate(178,208)"/>
<path d="M0 0 C0.66 0.99 1.32 1.98 2 3 C1.34 3.66 0.68 4.32 0 5 C-0.16687448 7.58354218 -0.16687448 7.58354218 0 10 C-1.98 10.99 -1.98 10.99 -4 12 C-3.67 9.03 -3.34 6.06 -3 3 C-2.34 3 -1.68 3 -1 3 C-0.67 2.01 -0.34 1.02 0 0 Z " fill="#1B3986" transform="translate(382,178)"/>
<path d="M0 0 C2.16874252 0.50603992 3.99967627 0.99983813 6 2 C4.8141763 5.37503669 3.72426311 7.64722731 1 10 C1.020625 9.0925 1.04125 8.185 1.0625 7.25 C1.0110245 4.57327412 0.7784983 2.53011948 0 0 Z " fill="#44599B" transform="translate(306,385)"/>
<path d="M0 0 C0.66 1.32 1.32 2.64 2 4 C0 6 0 6 -3 7 C-3 7.66 -3 8.32 -3 9 C-2.34 9.33 -1.68 9.66 -1 10 C-2.98 10.66 -4.96 11.32 -7 12 C-5.68 9.36 -4.36 6.72 -3 4 C-2.34 4 -1.68 4 -1 4 C-0.67 2.68 -0.34 1.36 0 0 Z " fill="#51629A" transform="translate(310,363)"/>
<path d="M0 0 C0.66 0 1.32 0 2 0 C2.3125 3.1875 2.3125 3.1875 2 7 C-0.5 9.9375 -0.5 9.9375 -3 12 C-3.33 11.01 -3.66 10.02 -4 9 C-3.34 8.67 -2.68 8.34 -2 8 C-1.31527335 6.11235097 -1.31527335 6.11235097 -0.875 3.9375 C-0.70742188 3.20402344 -0.53984375 2.47054687 -0.3671875 1.71484375 C-0.24601562 1.14894531 -0.12484375 0.58304688 0 0 Z " fill="#1E3884" transform="translate(364,204)"/>
<path d="M0 0 C1.32 0 2.64 0 4 0 C4 1.32 4 2.64 4 4 C-1.2734375 7.22265625 -1.2734375 7.22265625 -3 8 C-3.66 7.67 -4.32 7.34 -5 7 C-4 5 -4 5 -1 4 C-0.26676204 1.98491642 -0.26676204 1.98491642 0 0 Z " fill="#4F629B" transform="translate(250,453)"/>
<path d="M0 0 C3.11398457 -0.21231713 5.45304074 -0.21590497 8.375 0.9375 C10.99520534 4.26314524 10.30779383 7.9217317 10 12 C9.67 12 9.34 12 9 12 C8.67 9.36 8.34 6.72 8 4 C3.545 3.01 3.545 3.01 -1 2 C-0.67 1.34 -0.34 0.68 0 0 Z " fill="#7383AB" transform="translate(166,253)"/>
<path d="M0 0 C0.66 0.99 1.32 1.98 2 3 C1.26299754 6.53761179 0.60744131 8.46402237 -2.125 10.875 C-2.74375 11.24625 -3.3625 11.6175 -4 12 C-3.45660208 7.43545749 -2.20536179 4.0271824 0 0 Z " fill="#5768A2" transform="translate(185,146)"/>
<path d="M0 0 C0.6875 1.75 0.6875 1.75 1 4 C-0.125 6.25 -0.125 6.25 -2 8 C-4.6875 8.25 -4.6875 8.25 -7 8 C-7 7.34 -7 6.68 -7 6 C-6.34 6 -5.68 6 -5 6 C-5 5.34 -5 4.68 -5 4 C-3.37373596 2.61767557 -1.7074998 1.28062485 0 0 Z " fill="#1B3A87" transform="translate(237,71)"/>
<path d="M0 0 C0.66 0.33 1.32 0.66 2 1 C2 2.65 2 4.3 2 6 C2.66 6.33 3.32 6.66 4 7 C2.1875 7.625 2.1875 7.625 0 8 C-0.99 7.34 -1.98 6.68 -3 6 C-1.125 1.125 -1.125 1.125 0 0 Z " fill="#425796" transform="translate(124,315)"/>
<path d="M0 0 C3.60296594 -0.41176754 4.78402067 -0.1535853 7.8125 2 C8.534375 2.66 9.25625 3.32 10 4 C6.12331765 5.29222745 4.37094106 4.64738884 0.75 2.9375 C0.1725 2.628125 -0.405 2.31875 -1 2 C-0.67 1.34 -0.34 0.68 0 0 Z " fill="#455997" transform="translate(291,218)"/>
<path d="M0 0 C2.0625 0.4375 2.0625 0.4375 4 1 C3.42415568 3.38564077 2.77772405 5.66682784 2 8 C1.34 8 0.68 8 0 8 C-0.33 8.66 -0.66 9.32 -1 10 C-0.814375 9.2575 -0.62875 8.515 -0.4375 7.75 C-0.00415005 5.02608603 -0.2593443 3.59229496 -1 1 C-0.67 0.67 -0.34 0.34 0 0 Z " fill="#445A94" transform="translate(211,123)"/>
<path d="M0 0 C0.12375 0.639375 0.2475 1.27875 0.375 1.9375 C0.684375 2.9584375 0.684375 2.9584375 1 4 C1.66 4.33 2.32 4.66 3 5 C0.80090595 7.19909405 -1.56070254 9.07423885 -4 11 C-4 7.80389448 -3.45328458 6.58282374 -2 3.8125 C-1.62875 3.09707031 -1.2575 2.38164062 -0.875 1.64453125 C-0.441875 0.83048828 -0.441875 0.83048828 0 0 Z " fill="#5B6CA1" transform="translate(120,321)"/>
<path d="M0 0 C0.99 0.33 1.98 0.66 3 1 C3 1.66 3 2.32 3 3 C3.8971875 3.1546875 3.8971875 3.1546875 4.8125 3.3125 C7.28243264 4.08876455 8.32251235 5.07088921 10 7 C8.35 7.33 6.7 7.66 5 8 C2 4.25 2 4.25 2 2 C1.34 2 0.68 2 0 2 C0 1.34 0 0.68 0 0 Z " fill="#5A6C9F" transform="translate(225,256)"/>
<path d="M0 0 C0.66 0.33 1.32 0.66 2 1 C1.67 3.64 1.34 6.28 1 9 C0.01 8.67 -0.98 8.34 -2 8 C-2.33 6.02 -2.66 4.04 -3 2 C-2.01 1.34 -1.02 0.68 0 0 Z " fill="#1D3A88" transform="translate(386,186)"/>
<path d="M0 0 C-1.39332574 3.36720387 -2.9789286 4.9859524 -6 7 C-6.99 6.34 -7.98 5.68 -9 5 C-3.375 0 -3.375 0 0 0 Z " fill="#475B94" transform="translate(264,41)"/>
<path d="M0 0 C0.66 0.66 1.32 1.32 2 2 C1.54545455 7.45454545 1.54545455 7.45454545 -1 10 C-1 9.01 -1 8.02 -1 7 C-1.66 7 -2.32 7 -3 7 C-2.38722388 4.03824877 -1.74627478 2.61941217 0 0 Z " fill="#6172AE" transform="translate(295,274)"/>
<path d="M0 0 C0.66 0 1.32 0 2 0 C2 0.99 2 1.98 2 3 C2.99 3.33 3.98 3.66 5 4 C4.67 5.32 4.34 6.64 4 8 C0.125 6.25 0.125 6.25 -1 4 C-0.34 4 0.32 4 1 4 C0.67 2.68 0.34 1.36 0 0 Z " fill="#1B3A8A" transform="translate(154,446)"/>
<path d="M0 0 C0.66 0.33 1.32 0.66 2 1 C1.67 1.66 1.34 2.32 1 3 C0.34 3 -0.32 3 -1 3 C-0.67 2.01 -0.34 1.02 0 0 Z M-4 1 C-2.68 2.32 -1.36 3.64 0 5 C-1.98 5.99 -1.98 5.99 -4 7 C-4.38218767 5.34385343 -4.71395102 3.67542976 -5 2 C-4.67 1.67 -4.34 1.34 -4 1 Z " fill="#1F3986" transform="translate(126,416)"/>
<path d="M0 0 C1.32 0.66 2.64 1.32 4 2 C3.67 2.66 3.34 3.32 3 4 C3.99 4.99 4.98 5.98 6 7 C5.01 7.495 5.01 7.495 4 8 C4 7.34 4 6.68 4 6 C3.401875 5.87625 2.80375 5.7525 2.1875 5.625 C0 5 0 5 -3 3 C-2.01 3 -1.02 3 0 3 C0 2.01 0 1.02 0 0 Z " fill="#495F9B" transform="translate(287,226)"/>
<path d="M0 0 C4.29 0 8.58 0 13 0 C13 0.99 13 1.98 13 3 C8.71 2.34 4.42 1.68 0 1 C0 0.67 0 0.34 0 0 Z " fill="#646EA6" transform="translate(329,39)"/>
<path d="M0 0 C0.33 0.99 0.66 1.98 1 3 C1.66 3.33 2.32 3.66 3 4 C-0.625 9.75 -0.625 9.75 -4 12 C-2.87204037 7.89100419 -1.66489182 3.92438786 0 0 Z " fill="#6775A9" transform="translate(328,329)"/>
<path d="M0 0 C0.99 0.33 1.98 0.66 3 1 C2.43628586 4.26954202 1.50037734 5.82575883 -1 8 C-1.33 5.69 -1.66 3.38 -2 1 C-1.34 0.67 -0.68 0.34 0 0 Z " fill="#203983" transform="translate(292,273)"/>
<path d="M0 0 C0.99 0 1.98 0 3 0 C3 0.66 3 1.32 3 2 C2.34 2 1.68 2 1 2 C0.71125 2.969375 0.4225 3.93875 0.125 4.9375 C-1 8 -1 8 -3 9 C-2.25 2.25 -2.25 2.25 0 0 Z " fill="#556497" transform="translate(221,112)"/>
<path d="M0 0 C2 1.25 2 1.25 4 3 C4 4.32 4 5.64 4 7 C2.35 6.67 0.7 6.34 -1 6 C-0.67 4.02 -0.34 2.04 0 0 Z " fill="#3F5599" transform="translate(386,52)"/>
<path d="M0 0 C2.31 0 4.62 0 7 0 C7 0.66 7 1.32 7 2 C6.34 2 5.68 2 5 2 C5 2.66 5 3.32 5 4 C3.35 3.67 1.7 3.34 0 3 C0 2.01 0 1.02 0 0 Z " fill="#344A92" transform="translate(260,446)"/>
<path d="M0 0 C0.99 0.99 1.98 1.98 3 3 C2.34 4.65 1.68 6.3 1 8 C0.34 8 -0.32 8 -1 8 C-1.93065133 5.39417629 -2.14917407 4.35801776 -1.0625 1.75 C-0.711875 1.1725 -0.36125 0.595 0 0 Z " fill="#324B89" transform="translate(315,375)"/>
<path d="M0 0 C1.41805831 0.28482368 2.83440379 0.57818144 4.25 0.875 C5.03890625 1.03742188 5.8278125 1.19984375 6.640625 1.3671875 C8.96831144 1.99150075 10.89031952 2.84838542 13 4 C10.36 4 7.72 4 5 4 C5 3.34 5 2.68 5 2 C3.35 2 1.7 2 0 2 C0 1.34 0 0.68 0 0 Z " fill="#5B6C9C" transform="translate(269,209)"/>
<path d="M0 0 C-9.41002278 3.44419134 -9.41002278 3.44419134 -14 3 C-9.90201241 -0.77014858 -5.28719947 -1.76239982 0 0 Z " fill="#6F81A7" transform="translate(239,464)"/>
<path d="M0 0 C2 3 2 3 1.7578125 5.26171875 C1.54898438 6.06222656 1.34015625 6.86273438 1.125 7.6875 C0.92132813 8.49574219 0.71765625 9.30398438 0.5078125 10.13671875 C0.25644531 11.05904297 0.25644531 11.05904297 0 12 C-0.66 11.67 -1.32 11.34 -2 11 C-1.85892253 9.54119891 -1.71197585 8.08296449 -1.5625 6.625 C-1.48128906 5.81289063 -1.40007812 5.00078125 -1.31640625 4.1640625 C-1 2 -1 2 0 0 Z " fill="#58689D" transform="translate(111,341)"/>
<path d="M0 0 C0.66 0 1.32 0 2 0 C3 3 3 3 2.0625 5.1875 C1.5365625 6.0846875 1.5365625 6.0846875 1 7 C0.01 6.01 -0.98 5.02 -2 4 C-1.34 2.68 -0.68 1.36 0 0 Z " fill="#485B9B" transform="translate(322,259)"/>
<path d="M0 0 C0.66 0 1.32 0 2 0 C1.42647107 3.87132028 -0.48704352 6.08172796 -3 9 C-3.33 7.35 -3.66 5.7 -4 4 C-3.01 4.33 -2.02 4.66 -1 5 C-0.67 3.35 -0.34 1.7 0 0 Z " fill="#5C6EA0" transform="translate(381,200)"/>
<path d="M0 0 C1.65 0.33 3.3 0.66 5 1 C4.01 1.33 3.02 1.66 2 2 C2 3.32 2 4.64 2 6 C0.68 5.67 -0.64 5.34 -2 5 C-2 4.01 -2 3.02 -2 2 C-1.34 2 -0.68 2 0 2 C0 1.34 0 0.68 0 0 Z " fill="#3A4F95" transform="translate(172,448)"/>
<path d="M0 0 C0.99 0.99 1.98 1.98 3 3 C2.67 3.99 2.34 4.98 2 6 C0.68 6 -0.64 6 -2 6 C-1.125 1.125 -1.125 1.125 0 0 Z " fill="#203786" transform="translate(275,418)"/>
<path d="M0 0 C1.32 0.33 2.64 0.66 4 1 C2.71937515 2.7074998 1.38232443 4.37373596 0 6 C-0.66 6 -1.32 6 -2 6 C-2 4.68 -2 3.36 -2 2 C-1.34 2 -0.68 2 0 2 C0 1.34 0 0.68 0 0 Z " fill="#1E3789" transform="translate(130,308)"/>
<path d="M0 0 C0.75 1.6875 0.75 1.6875 1 4 C-0.9375 6.75 -0.9375 6.75 -3 9 C-3.66 8.67 -4.32 8.34 -5 8 C-4.67 7.01 -4.34 6.02 -4 5 C-3.34 5 -2.68 5 -2 5 C-1.34 3.35 -0.68 1.7 0 0 Z " fill="#4C5F94" transform="translate(147,280)"/>
<path d="M0 0 C0.66 1.32 1.32 2.64 2 4 C1.34 4.66 0.68 5.32 0 6 C-2.125 5.625 -2.125 5.625 -4 5 C-1.125 1.125 -1.125 1.125 0 0 Z " fill="#1E3A89" transform="translate(198,240)"/>
<path d="M0 0 C1.32 0.33 2.64 0.66 4 1 C4.625 3.375 4.625 3.375 5 6 C4.34 6.66 3.68 7.32 3 8 C0 3.375 0 3.375 0 0 Z " fill="#203987" transform="translate(408,96)"/>
<path d="M0 0 C2.97 0.495 2.97 0.495 6 1 C6.33 2.65 6.66 4.3 7 6 C6.01 6 5.02 6 4 6 C1.8125 3 1.8125 3 0 0 Z " fill="#4C619A" transform="translate(380,67)"/>
<path d="M0 0 C0.66 0.33 1.32 0.66 2 1 C1.67 1.66 1.34 2.32 1 3 C-2.3 2.34 -5.6 1.68 -9 1 C-4.80184617 -1.09907691 -4.20805526 -1.21812126 0 0 Z " fill="#7989AD" transform="translate(293,271)"/>
<path d="M0 0 C1 3 1 3 0 6 C-0.66 6 -1.32 6 -2 6 C-2 6.66 -2 7.32 -2 8 C-2.99 8.33 -3.98 8.66 -5 9 C-4.34 7.35 -3.68 5.7 -3 4 C-2.34 4 -1.68 4 -1 4 C-0.67 2.68 -0.34 1.36 0 0 Z " fill="#6676A5" transform="translate(204,115)"/>
<path d="M0 0 C0.99 0 1.98 0 3 0 C2.50351065 4.46840411 2.31012244 5.68987756 -1 9 C-0.67 6.03 -0.34 3.06 0 0 Z " fill="#3C568D" transform="translate(319,369)"/>
<path d="M0 0 C1.65 0.33 3.3 0.66 5 1 C4.67 1.99 4.34 2.98 4 4 C1.36 4 -1.28 4 -4 4 C-2.68 3.34 -1.36 2.68 0 2 C0 1.34 0 0.68 0 0 Z " fill="#1B387B" transform="translate(286,281)"/>
<path d="M0 0 C1.98 0.99 1.98 0.99 4 2 C4 2.66 4 3.32 4 4 C4.66 4 5.32 4 6 4 C5.67 4.66 5.34 5.32 5 6 C3.35 5.67 1.7 5.34 0 5 C0 3.35 0 1.7 0 0 Z " fill="#5A6A9E" transform="translate(315,233)"/>
<path d="M0 0 C0.33 0 0.66 0 1 0 C1.25 2.25 1.25 2.25 1 5 C-1 7.3125 -1 7.3125 -3 9 C-3.66 8.67 -4.32 8.34 -5 8 C-4.19185349 6.66402348 -3.37836819 5.331275 -2.5625 4 C-2.11003906 3.2575 -1.65757812 2.515 -1.19140625 1.75 C-0.79824219 1.1725 -0.40507812 0.595 0 0 Z " fill="#6375A5" transform="translate(384,172)"/>
<path d="M0 0 C0.98120464 3.05263664 0.98120464 4.94736336 0 8 C-1.32 7.67 -2.64 7.34 -4 7 C-2.68 4.69 -1.36 2.38 0 0 Z " fill="#586B9F" transform="translate(389,164)"/>
<path d="M0 0 C1.32 0.33 2.64 0.66 4 1 C0.375 5.875 0.375 5.875 -3 7 C-1.125 2.25 -1.125 2.25 0 0 Z " fill="#566599" transform="translate(197,125)"/>
<path d="M0 0 C2.83374881 3.20336822 3.5205537 5.78087253 4 10 C3.34 10 2.68 10 2 10 C0.39644899 6.49223216 -0.22036864 3.85645121 0 0 Z " fill="#5F6B9E" transform="translate(406,80)"/>
<path d="M0 0 C0.99 0.33 1.98 0.66 3 1 C1.68 3.31 0.36 5.62 -1 8 C-1.33 8 -1.66 8 -2 8 C-2.20086443 4.28400809 -2.1519437 3.22791555 0 0 Z " fill="#6776A2" transform="translate(242,80)"/>
<path d="M0 0 C0.99 0.33 1.98 0.66 3 1 C3 1.66 3 2.32 3 3 C3.66 3 4.32 3 5 3 C5 3.66 5 4.32 5 5 C5.66 5 6.32 5 7 5 C7 5.66 7 6.32 7 7 C4.625 6.3125 4.625 6.3125 2 5 C0.6875 2.375 0.6875 2.375 0 0 Z " fill="#4F609A" transform="translate(378,45)"/>
<path d="M0 0 C0.66 0.33 1.32 0.66 2 1 C2 2.65 2 4.3 2 6 C1.01 6.33 0.02 6.66 -1 7 C-2 4 -2 4 -1.0625 1.8125 C-0.5365625 0.9153125 -0.5365625 0.9153125 0 0 Z " fill="#6373A6" transform="translate(322,343)"/>
<path d="M0 0 C2.625 0.9375 2.625 0.9375 5 2 C4.67 2.99 4.34 3.98 4 5 C2.02 4.34 0.04 3.68 -2 3 C-2 2.34 -2 1.68 -2 1 C-1.34 0.67 -0.68 0.34 0 0 Z " fill="#3F559C" transform="translate(148,296)"/>
<path d="M0 0 C0.66 1.32 1.32 2.64 2 4 C0.68 5.32 -0.64 6.64 -2 8 C-2 5.69 -2 3.38 -2 1 C-1.34 0.67 -0.68 0.34 0 0 Z " fill="#1C397E" transform="translate(333,281)"/>
<path d="M0 0 C1.60031344 3.20062687 0.03173691 5.72271806 -1 9 C-1.66 9 -2.32 9 -3 9 C-2.69181644 7.68647977 -2.37832335 6.37420428 -2.0625 5.0625 C-1.88847656 4.33160156 -1.71445312 3.60070312 -1.53515625 2.84765625 C-1 1 -1 1 0 0 Z " fill="#50629C" transform="translate(363,204)"/>
<path d="M0 0 C0.99 0.33 1.98 0.66 3 1 C3 2.32 3 3.64 3 5 C1.35 4.67 -0.3 4.34 -2 4 C-1.34 2.68 -0.68 1.36 0 0 Z " fill="#364C8E" transform="translate(244,74)"/>
<path d="M0 0 C0 3 0 3 -1 6 C-2.65 6.33 -4.3 6.66 -6 7 C-4.02 4.69 -2.04 2.38 0 0 Z " fill="#5566A6" transform="translate(252,48)"/>
<path d="M0 0 C2.57343171 1.07918104 4.66603411 2.44402274 7 4 C0.25 3.25 0.25 3.25 -2 1 C-1.34 0.67 -0.68 0.34 0 0 Z " fill="#1D3880" transform="translate(280,40)"/>
<path d="M0 0 C1.2065625 0.0309375 1.2065625 0.0309375 2.4375 0.0625 C2.4375 0.7225 2.4375 1.3825 2.4375 2.0625 C1.509375 2.248125 1.509375 2.248125 0.5625 2.4375 C-1.75370832 2.93447356 -1.75370832 2.93447356 -3.5625 5.0625 C-3.5625 0.08689024 -3.5625 0.08689024 0 0 Z " fill="#4C639A" transform="translate(339.5625,25.9375)"/>
<path d="M0 0 C-2.17424117 2.50037734 -3.73045798 3.43628586 -7 4 C-7.33 3.01 -7.66 2.02 -8 1 C-5.29120665 -0.35439668 -2.99066732 -0.06501451 0 0 Z " fill="#58669B" transform="translate(300,26)"/>
</svg>
